#!OML:ASF F:\VICON\USERDATA\INSTALL\rory3\rory3.ASF
:FULLY-SPECIFIED
:DEGREES
385
root 2.9223 16.7397 -0.167816 15.3516 4.94463 11.0763
lowerback -6.97757 1.33671 -0.798296
upperback -2.09267 2.01955 -6.95157
thorax 1.97413 1.0217 -6.63397
lowerneck -3.55045 14.6835 4.78533
upperneck 48.0373 24.4515 -1.3162
head 20.5428 10.5478 2.79741
rclavicle -8.94531e-016 1.11319e-014
rhumerus -36.0364 3.6791 -92.9611
rradius 42.5509
rwrist -38.52
rhand -7.79823 -49.456
rfingers 7.12502
rthumb 18.103 -78.6336
lclavicle -8.94531e-016 1.11319e-014
lhumerus -27.5709 -19.3201 81.8515
lradius 41.1976
lwrist 74.392
lhand -38.5146 -14.0203
lfingers 7.12502
lthumb -11.5356 15.6423
rfemur -51.3677 23.9241 -6.6678
rtibia 73.9303
rfoot 3.20967 9.69981
rtoes -42.0546
lfemur -32.7898 -6.58001 -36.2691
ltibia 38.2511
lfoot -16.2877 10.3739
ltoes 4.54574
386
root 2.9229 16.7409 -0.165839 15.332 4.97175 11.0581
lowerback -7.02595 1.37243 -0.708429
upperback -2.0472 2.06701 -6.96372
thorax 2.05721 1.04761 -6.69343
lowerneck -3.03022 14.5461 4.98496
upperneck 47.2418 24.3003 -1.98596
head 20.04 10.5262 2.32283
rclavicle -5.1684e-015 -2.0276e-014
rhumerus -36.0239 3.54045 -92.8936
rradius 42.6321
rwrist -38.4675
rhand -8.02893 -49.7121
rfingers 7.12502
rthumb 17.881 -78.9101
lclavicle -5.1684e-015 -2.0276e-014
lhumerus -27.504 -19.4162 81.8801
lradius 41.1816
lwrist 74.366
lhand -38.7589 -13.8998
lfingers 7.12502
lthumb -11.7712 15.7494
rfemur -51.2904 23.9858 -6.63345
rtibia 73.9142
rfoot 3.25643 9.45642
rtoes -41.2876
lfemur -32.7375 -6.5888 -36.2528
ltibia 38.2359
lfoot -16.2888 10.3873
ltoes 4.36119
387
root 2.92367 16.742 -0.165677 15.341 5.01902 11.0483
lowerback -7.05366 1.38019 -0.646089
upperback -2.05065 2.07442 -6.96764
thorax 2.07221 1.05177 -6.73255
lowerneck -2.85079 14.4919 5.03376
upperneck 47.023 24.2238 -2.15035
head 19.8851 10.5105 2.19252
rclavicle 7.85199e-015 4.13472e-014
rhumerus -36.1078 3.49415 -92.8787
rradius 42.7202
rwrist -38.4988
rhand -8.27245 -49.7551
rfingers 7.12502
rthumb 17.6467 -78.9743
lclavicle 7.85199e-015 4.13472e-014
lhumerus -27.5718 -19.4979 81.9222
lradius 41.268
lwrist 74.419
lhand -38.8707 -14.0335
lfingers 7.12502
lthumb -11.879 15.6095
rfemur -51.2568 23.9585 -6.60133
rtibia 73.9092
rfoot 3.36742 9.3313
rtoes -40.6386
lfemur -32.7097 -6.60943 -36.242
ltibia 38.2132
lfoot -16.3175 10.3833
ltoes 4.31056
388
root 2.92511 16.7414 -0.167823 15.3855 5.04026 11.1425
lowerback -7.05336 1.35369 -0.708617
upperback -2.09895 2.04111 -6.99753
thorax 2.017 1.03359 -6.73215
lowerneck -2.76574 14.4849 5.1031
upperneck 47.0486 24.2307 -2.19654
head 19.9087 10.5211 2.15857
rclavicle -8.54774e-015 4.29375e-014
rhumerus -36.2268 3.5609 -92.9291
rradius 42.7979
rwrist -38.5881
rhand -8.38518 -49.7205
rfingers 7.12502
rthumb 17.5382 -78.9494
lclavicle -8.54774e-015 4.29375e-014
lhumerus -27.6796 -19.4991 81.9229
lradius 41.3158
lwrist 74.4841
lhand -38.5686 -14.1847
lfingers 7.12502
lthumb -11.5877 15.4749
rfemur -51.278 23.8924 -6.71557
rtibia 73.9122
rfoot 3.4524 9.41002
rtoes -40.8445
lfemur -32.7283 -6.65084 -36.3423
ltibia 38.1693
lfoot -16.3236 10.3387
ltoes 4.47715
389
root 2.92579 16.7408 -0.169036 15.3648 5.03566 11.2479
lowerback -6.96471 1.34766 -0.771217
upperback -2.13121 2.03229 -7.04009
thorax 1.93244 1.02775 -6.74433
lowerneck -2.671 14.4699 5.15031
upperneck 47.0358 24.2143 -2.23449
head 19.8935 10.5242 2.12168
rclavicle 1.77415e-014 1.27222e-014
rhumerus -36.2877 3.55551 -92.9456
rradius 42.8081
rwrist -38.6126
rhand -8.28742 -49.9076
rfingers 7.12502
rthumb 17.6323 -79.1281
lclavicle 1.77415e-014 1.27222e-014
lhumerus -27.7734 -19.5141 81.9139
lradius 41.3326
lwrist 74.4925
lhand -38.3895 -14.2163
lfingers 7.12502
lthumb -11.4149 15.453
rfemur -51.226 23.8788 -6.81656
rtibia 73.8822
rfoot 3.43393 9.52376
rtoes -41.5119
lfemur -32.6098 -6.66454 -36.461
ltibia 37.9825
lfoot -16.1965 10.2981
ltoes 4.49641
390
root 2.92659 16.7454 -0.165518 15.2561 5.0717 11.3256
lowerback -6.88227 1.34237 -0.819975
upperback -2.09846 2.02721 -7.0586
thorax 1.91894 1.02548 -6.73765
lowerneck -2.67883 14.4616 5.08947
upperneck 47.0584 24.1584 -2.11873
head 19.863 10.507 2.16968
rclavicle -1.87852e-014 -4.37326e-015
rhumerus -36.2725 3.54502 -92.9272
rradius 42.7128
rwrist -38.5927
rhand -8.13881 -49.4802
rfingers 7.12502
rthumb 17.7753 -78.6878
lclavicle -1.87852e-014 -4.37326e-015
lhumerus -27.8287 -19.4959 81.9321
lradius 41.3399
lwrist 74.4318
lhand -38.9162 -13.9814
lfingers 7.12502
lthumb -11.9228 15.6591
rfemur -51.0062 23.8938 -6.81389
rtibia 73.8446
rfoot 3.31661 9.6069
rtoes -41.9947
lfemur -32.4528 -6.69762 -36.5339
ltibia 37.9617
lfoot -16.2581 10.1722
ltoes 5.44757
